HIERARCHY
ROOT Hips
{
	OFFSET -3.958830 18.904000 13.208200
	CHANNELS 6 Xposition Yposition Zposition Zrotation Yrotation Xrotation 
	JOINT LHipJoint
	{
		OFFSET 0.000000 0.000000 0.000000
		CHANNELS 3 Zrotation Yrotation Xrotation
		JOINT LeftUpLeg
		{
			OFFSET 1.800000 -1.400000 0.085000
			CHANNELS 3 Zrotation Yrotation Xrotation
			JOINT LeftLeg
			{
				OFFSET 2.215000 -6.000000 0.000000
				CHANNELS 3 Zrotation Yrotation Xrotation
				JOINT LeftFoot
				{
					OFFSET 2.500000 -6.900000 0.000000
					CHANNELS 3 Zrotation Yrotation Xrotation
					JOINT LeftToeBase
					{
						OFFSET 0.200000 -0.500000 1.950000
						CHANNELS 3 Zrotation Yrotation Xrotation
						End Site
						{
							OFFSET 0.000000 0.000000 0.000000
						}
					}
				}
			}
		}
	}
	JOINT RHipJoint
	{
		OFFSET 0.000000 0.000000 0.000000
		CHANNELS 3 Zrotation Yrotation Xrotation
		JOINT RightUpLeg
		{
			OFFSET -1.800000 -1.400000 0.085000
			CHANNELS 3 Zrotation Yrotation Xrotation
			JOINT RightLeg
			{
				OFFSET -2.215000 -6.000000 0.000000
				CHANNELS 3 Zrotation Yrotation Xrotation
				JOINT RightFoot
				{
					OFFSET -2.500000 -6.900000 0.000000
					CHANNELS 3 Zrotation Yrotation Xrotation
					JOINT RightToeBase
					{
						OFFSET -0.200000 -0.500000 1.950000
						CHANNELS 3 Zrotation Yrotation Xrotation
						End Site
						{
							OFFSET 0.000000 0.000000 0.000000
						}
					}
				}
			}
		}
	}
	JOINT LowerBack
	{
		OFFSET 0.000000 0.000000 0.000000
		CHANNELS 3 Zrotation Yrotation Xrotation
		JOINT Spine
		{
			OFFSET -0.087000 1.940000 -0.288900
			CHANNELS 3 Zrotation Yrotation Xrotation
			JOINT Spine1
			{
				OFFSET 0.000000 1.950000 0.060000
				CHANNELS 3 Zrotation Yrotation Xrotation
				JOINT Neck
				{
					OFFSET 0.000000 0.000000 0.000000
					CHANNELS 3 Zrotation Yrotation Xrotation
					JOINT Neck1
					{
						OFFSET 0.000000 1.600000 0.340000
						CHANNELS 3 Zrotation Yrotation Xrotation
						JOINT Head
						{
							OFFSET 0.000000 1.667000 -0.240000
							CHANNELS 3 Zrotation Yrotation Xrotation
							End Site
							{
								OFFSET 0.000000 0.000000 0.000000
							}
						}
					}
				}
				JOINT LeftShoulder
				{
					OFFSET 0.000000 0.000000 0.000000
					CHANNELS 3 Zrotation Yrotation Xrotation
					JOINT LeftArm
					{
						OFFSET 2.700000 1.550000 -0.730000
						CHANNELS 3 Zrotation Yrotation Xrotation
						JOINT LeftForeArm
						{
							OFFSET 5.450000 0.000000 0.000000
							CHANNELS 3 Zrotation Yrotation Xrotation
							JOINT LeftHand
							{
								OFFSET 3.450000 0.000000 0.000000
								CHANNELS 3 Zrotation Yrotation Xrotation
								JOINT LeftHandIndex1
								{
									OFFSET 0.750000 0.000000 0.000000
									CHANNELS 3 Zrotation Yrotation Xrotation
									End Site
									{
										OFFSET 0.000000 0.000000 0.000000
									}
								}
							}
						}
					}
				}
				JOINT RightShoulder
				{
					OFFSET 0.000000 0.000000 0.000000
					CHANNELS 3 Zrotation Yrotation Xrotation
					JOINT RightArm
					{
						OFFSET -2.700000 1.550000 -0.730000
						CHANNELS 3 Zrotation Yrotation Xrotation
						JOINT RightForeArm
						{
							OFFSET -5.450000 0.000000 0.000000
							CHANNELS 3 Zrotation Yrotation Xrotation
							JOINT RightHand
							{
								OFFSET -3.450000 0.000000 0.000000
								CHANNELS 3 Zrotation Yrotation Xrotation
								JOINT RightHandIndex1
								{
									OFFSET -0.750000 0.000000 0.000000
									CHANNELS 3 Zrotation Yrotation Xrotation
									End Site
									{
										OFFSET 0.000000 0.000000 0.000000
									}
								}
							}
						}
					}
				}
			}
		}
	}
}
MOTION
Frames: 13
Frame Time: 0.016667
-1.371900 16.472650 -1.695160 4.856249 -6.879422 -14.731054 -14.842552 13.140585 2.418163 10.358284 2.250242 -2.023459 -12.091360 10.362513 19.610216 -0.736077 7.074517 2.212076 0.128030 -0.277950 -0.009900 18.382605 -11.438414 2.746666 -32.988355 3.008856 5.499752 -5.754746 -4.647093 5.858090 -0.304891 -6.177924 2.143409 0.384430 0.926320 0.294570 -4.137937 -0.941045 -7.303195 3.845055 2.860936 32.801768 -13.011037 7.835011 14.458914 1.823489 -11.012053 -10.580772 -18.976693 16.771008 13.386861 7.456880 5.141510 -8.474960 18.731403 -5.677108 9.894820 -0.129769 -1.279914 3.405912 154.146258 -23.290055 -100.482588 -4.752635 2.992718 0.407610 0.565930 -0.550280 -0.005290 -23.203558 14.374474 -2.907466 -38.933930 13.117914 -7.784580 -114.227687 58.176180 -81.252820 1.631747 -1.183706 -0.699400 0.488330 0.502720 -0.217080 
-1.390370 16.456000 -1.706180 4.957844 -6.841788 -14.912195 -14.799810 13.001232 2.336563 10.403290 2.276242 -2.067366 -11.984457 10.540466 20.381376 -0.862289 7.286171 2.119842 0.157040 -0.277520 0.012970 18.453960 -11.437187 2.824706 -32.897813 3.186420 6.552848 -5.567557 -4.720529 5.086955 -0.312117 -6.408806 2.033240 0.466260 0.995650 0.342810 -4.315483 -0.735375 -7.264881 4.760797 3.120581 32.409488 -12.802118 8.398721 16.186903 0.496560 -10.817292 -9.805624 -18.512732 16.999299 11.489365 6.889830 4.807400 -8.169530 21.763748 -5.116348 10.832770 -3.526275 -5.351871 4.218973 152.163664 -24.748687 -101.519543 -4.900398 2.988689 0.387170 0.640380 -0.601870 -0.006310 -24.172363 12.396632 -4.432642 -38.212025 15.436061 -7.789733 -113.655281 57.863723 -80.537455 1.564576 -1.259128 -0.752650 0.510030 0.537950 -0.231820 
-1.414020 16.441890 -1.697650 5.499717 -6.784014 -14.454769 -14.728087 12.825661 2.313689 10.007636 2.219594 -2.354033 -12.397477 10.670199 20.503537 -0.957312 7.368287 2.063841 0.160760 -0.297940 0.018860 18.541978 -11.513154 2.855705 -33.335396 3.340100 6.427746 -5.147094 -4.872864 5.178026 -0.306628 -6.505392 1.967536 0.498070 1.022740 0.373690 -4.553005 -0.355160 -7.260732 5.335683 3.303703 31.340359 -13.091207 8.574278 16.414863 -0.648692 -10.872433 -9.367543 -18.951049 18.117029 11.389628 7.161580 5.170040 -8.256120 22.030287 -5.740139 11.038663 -3.678931 -6.355718 4.077369 150.852610 -25.778582 -101.102715 -4.938027 2.967980 0.421110 0.664950 -0.609330 -0.014120 -22.420949 12.512979 -5.001837 -40.116562 17.487464 -8.130695 -114.920770 57.681599 -81.028946 1.547168 -1.237641 -0.796120 0.521920 0.570940 -0.250840 
-1.436070 16.418190 -1.674850 5.820642 -6.627439 -13.044264 -14.589754 12.531834 2.267837 9.521979 1.984319 -3.594037 -12.860916 10.841233 20.928327 -1.056259 7.406909 2.043809 0.136120 -0.342410 0.002390 18.692149 -11.720637 2.895577 -33.533447 3.568635 5.437741 -4.842590 -4.928917 5.366528 -0.272770 -6.518037 1.947488 0.513450 1.084780 0.376710 -4.972911 0.485789 -7.255508 6.974755 3.457148 29.276401 -14.879205 8.900462 16.257314 -1.286133 -10.681700 -9.179606 -18.579478 18.812707 11.754502 7.989930 5.220540 -8.107840 22.282326 -5.856033 10.638332 -3.463914 -8.151274 4.040227 149.594306 -25.563367 -98.002415 -4.954913 2.909515 0.449540 0.696040 -0.636800 -0.016030 -21.354483 12.121102 -4.766203 -39.140151 19.709670 -7.993638 -119.893851 55.579827 -85.383673 1.610272 -1.456528 -0.859960 0.572220 0.612110 -0.260650 
-1.457370 16.405860 -1.663510 6.769587 -6.890847 -12.622622 -14.517268 12.278574 2.198790 8.494661 1.893164 -3.697946 -13.016454 10.900077 21.102280 -1.102811 7.442767 2.067839 0.150280 -0.314050 -0.065760 18.800068 -11.740600 3.023332 -34.571832 4.032836 5.445680 -4.270413 -4.995316 4.602339 -0.266008 -6.722396 1.880850 0.581650 1.197800 0.370920 -5.247826 0.955096 -7.270089 7.407216 4.363186 28.585197 -15.516431 10.282456 17.122824 -2.461977 -10.468702 -9.004758 -17.897763 18.078041 10.343864 9.329400 3.274510 -7.368060 24.772905 -5.930892 11.633404 -7.397765 -12.548240 4.695636 147.864133 -24.488742 -95.914808 -5.020743 2.901821 0.387020 0.752990 -0.711860 0.038360 -21.904903 11.081066 -5.621945 -38.827202 20.003552 -7.379375 -127.064630 54.230462 -94.202931 1.634799 -1.836963 -0.893210 0.642980 0.633010 -0.213710 
-1.466670 16.394150 -1.646920 7.324575 -7.360718 -11.507042 -14.550893 12.209593 2.196045 8.001993 1.772908 -4.588638 -13.574983 10.986445 20.849822 -1.078218 7.361123 2.071441 0.133130 -0.344330 -0.064680 18.790347 -11.531550 3.170451 -35.001108 4.352990 5.349602 -3.509652 -4.986473 2.877949 -0.287410 -6.737660 1.869121 0.540220 1.147310 0.357470 -5.198574 0.805867 -7.318420 7.075714 5.366707 26.323527 -15.708387 11.443110 17.542640 -2.392551 -10.550615 -9.603687 -18.279183 17.491967 12.260848 10.334740 2.806790 -7.325260 25.459574 -6.794135 11.759494 -6.189130 -14.439389 5.314490 148.039685 -25.530396 -97.445056 -4.969629 2.868453 0.420400 0.702680 -0.684330 0.022320 -22.900190 12.075679 -4.930036 -38.485812 18.218923 -6.788697 -134.109675 52.744060 -102.554239 1.691973 -2.085083 -0.881520 0.610400 0.627710 -0.220800 
-1.468390 16.391780 -1.631140 8.247191 -8.185265 -11.259164 -14.592780 12.197124 2.231258 7.039149 1.726369 -4.342526 -13.912863 10.874770 20.106091 -1.111356 7.295955 2.083062 0.121960 -0.369140 -0.055430 18.765620 -11.367974 3.246892 -35.909395 4.579736 5.104523 -3.278241 -4.985152 2.104718 -0.294888 -6.757425 1.837258 0.534990 1.130450 0.347560 -5.112732 0.576889 -7.349495 5.233635 5.697465 25.157308 -15.179326 11.704045 17.545265 -2.739078 -10.584676 -9.937838 -18.647380 18.452391 12.422845 10.845150 3.418490 -7.671600 25.885129 -7.781337 12.433696 -5.552250 -12.027229 5.763413 150.373421 -25.421527 -101.803260 -4.950170 2.887043 0.461260 0.680000 -0.671870 0.006850 -22.479877 13.362478 -4.851999 -40.353399 18.782885 -7.620914 -134.924165 51.972835 -102.182628 1.706583 -2.020262 -0.907740 0.616120 0.641550 -0.240790 
-1.460490 16.394400 -1.627000 8.502350 -8.380740 -12.082310 -14.632833 12.183394 2.199376 6.863843 1.972995 -3.290993 -13.812516 10.795256 19.669013 -1.129962 7.310834 2.084490 0.157800 -0.332410 -0.013050 18.748643 -11.272970 3.298075 -36.271476 4.707461 6.164073 -3.053730 -5.079682 1.565392 -0.337716 -6.914696 1.774908 0.569650 1.120910 0.356430 -5.043099 0.423547 -7.332496 4.625592 6.223975 25.231045 -13.630113 12.540641 19.164380 -3.422559 -10.326201 -9.520205 -17.891655 17.690653 12.129768 9.959390 3.202240 -8.361440 27.320189 -8.268321 12.424700 -4.564436 -13.439050 6.132984 150.843464 -26.233167 -104.777702 -4.972039 2.900199 0.454280 0.687880 -0.667920 0.004260 -22.897681 13.791618 -4.843838 -41.686468 18.212336 -8.225638 -131.901227 51.617945 -97.061736 1.686726 -1.950193 -0.905770 0.622850 0.628860 -0.250740 
-1.443530 16.396680 -1.629990 8.505821 -8.576215 -13.228356 -14.698698 12.278242 2.193503 6.922044 2.268547 -2.190087 -13.452956 10.746525 19.558705 -1.125865 7.343216 2.067426 0.179480 -0.315590 0.022310 18.686197 -11.196689 3.291436 -36.240155 4.768788 7.266149 -3.312309 -5.121038 1.402526 -0.376986 -6.996098 1.743941 0.576170 1.083450 0.371720 -4.860960 0.124483 -7.302103 4.258596 6.621202 26.063356 -11.871010 12.983283 20.207184 -3.560824 -10.589207 -9.143594 -18.247388 16.832707 12.071139 8.608280 3.053600 -8.995690 26.643930 -8.895301 11.912366 -2.304132 -13.652479 5.190422 149.871640 -26.138048 -101.806522 -4.983186 2.886923 0.463320 0.680700 -0.648400 -0.007850 -22.280825 15.231270 -4.602517 -44.905383 16.651709 -9.067231 -128.102308 52.283633 -91.119873 1.656633 -1.793669 -0.890230 0.602960 0.621040 -0.268270 
-1.419100 16.390930 -1.623340 8.539060 -8.660146 -13.851062 -14.721080 12.312201 2.199552 6.984038 2.410744 -1.789881 -13.514484 10.880781 19.767859 -1.059789 7.348534 2.063589 0.190990 -0.290980 0.040740 18.661052 -11.154245 3.322354 -36.330595 4.791883 7.922898 -3.512524 -5.139192 1.057999 -0.432555 -7.009159 1.750509 0.554980 1.034770 0.356570 -4.787545 0.026130 -7.318841 3.480765 6.153259 26.333370 -11.230488 12.326923 20.055083 -3.281873 -11.047145 -9.274666 -19.291226 17.785257 12.541399 8.742450 4.025190 -9.539300 24.037208 -10.355877 11.171474 1.966182 -8.743971 2.938808 149.252651 -24.636342 -95.444192 -4.893243 2.926328 0.490470 0.635760 -0.604440 -0.009860 -19.810870 18.155769 -3.566514 -49.127435 15.888697 -10.716795 -119.852027 53.055516 -77.989574 1.601717 -1.352321 -0.863280 0.595260 0.597760 -0.272040 
-1.394500 16.393210 -1.610600 8.374874 -8.776230 -14.833613 -14.788948 12.426339 2.195233 7.341614 2.885029 -0.889950 -13.416414 10.999830 19.638787 -0.979220 7.299678 2.075409 0.202840 -0.256160 0.082940 18.587550 -11.078596 3.335723 -36.022968 4.934158 9.135296 -4.000444 -5.123682 0.609848 -0.504679 -6.989138 1.789981 0.517770 0.939160 0.310700 -4.578231 -0.241468 -7.315473 2.896339 6.412937 26.590158 -9.707954 12.434713 20.921688 -2.865236 -11.309756 -9.367894 -19.833729 17.620302 14.172585 8.556170 4.792620 -10.911120 22.839031 -10.966078 10.113370 5.767540 -6.224678 0.620710 146.396696 -22.773754 -84.046419 -4.783987 2.912464 0.541350 0.560040 -0.539480 -0.034840 -19.321168 20.158513 -2.086024 -48.682931 13.284569 -11.594721 -110.801464 52.541392 -64.386290 1.550899 -1.089195 -0.829120 0.586640 0.560490 -0.292340 
-1.370620 16.406540 -1.605660 7.906321 -8.875203 -17.166383 -14.858125 12.602399 2.224234 8.558507 3.492324 1.297509 -13.393942 11.149288 19.310303 -0.841800 7.342243 2.050722 0.238080 -0.197710 0.127350 18.496023 -11.034083 3.344206 -35.425042 4.868111 11.451074 -4.556222 -5.222338 0.383076 -0.626447 -7.036618 1.805787 0.479920 0.822250 0.288320 -4.320912 -0.562986 -7.361699 2.276044 6.265660 29.448737 -8.482290 12.587750 21.216370 -1.797437 -11.679202 -9.822481 -20.431439 17.534262 15.142971 8.889380 5.562410 -12.509030 21.068508 -12.976185 9.571874 8.652806 -1.990269 -3.983671 141.309538 -16.879514 -63.674334 -4.659057 3.014529 0.602420 0.464070 -0.444560 -0.045640 -19.490661 23.118693 -0.603624 -48.436075 5.179921 -11.573036 -101.235632 52.597266 -51.775283 1.621925 -1.060541 -0.765560 0.553080 0.507750 -0.300480 
-1.341160 16.413500 -1.602090 7.597102 -8.742136 -19.464906 -14.946265 12.786742 2.285537 9.540161 3.875407 3.414590 -13.450100 11.263019 19.046983 -0.603601 7.346870 2.075008 0.359620 0.000560 0.204740 18.390424 -10.976379 3.303660 -35.090868 4.640540 13.459784 -5.116274 -5.251058 0.578090 -0.779014 -7.094131 1.798506 0.500800 0.688300 0.296470 -4.015013 -0.937326 -7.383651 1.163547 5.941149 32.446087 -7.245189 12.752852 20.865721 -0.732708 -11.582406 -9.508440 -19.655888 16.841933 15.717102 6.912510 6.583480 -13.252940 19.810842 -13.886729 8.552448 11.400595 -0.452521 -7.993463 136.086775 -9.963583 -42.729582 -4.634058 3.233444 0.538320 0.403530 -0.344380 0.000830 -20.342457 24.654893 0.075248 -48.646699 -1.221978 -11.238478 -90.241769 51.686319 -39.730720 1.888922 -1.385691 -0.607130 0.482970 0.382300 -0.275230 
